<mxfile host="app.diagrams.net" modified="2024-04-07T00:04:31.893Z" agent="Mozilla/5.0 (Windows NT 10.0; Win64; x64) AppleWebKit/537.36 (KHTML, like Gecko) Chrome/120.0.0.0 YaBrowser/24.1.0.0 Safari/537.36" etag="smqT5CQRf5kTRl0x-fJO" version="24.2.2" type="github">
  <diagram name="Страница — 1" id="YCOsFV16asZ8XmroM45e">
    <mxGraphModel dx="1308" dy="653" grid="0" gridSize="10" guides="1" tooltips="1" connect="1" arrows="1" fold="1" page="0" pageScale="1" pageWidth="827" pageHeight="1169" math="0" shadow="0">
      <root>
        <mxCell id="0" />
        <mxCell id="1" parent="0" />
        <mxCell id="PXyk8LQRHrcoTp4581pN-7" value="Client" style="swimlane;fontStyle=1;align=center;verticalAlign=top;childLayout=stackLayout;horizontal=1;startSize=26;horizontalStack=0;resizeParent=1;resizeParentMax=0;resizeLast=0;collapsible=1;marginBottom=0;whiteSpace=wrap;html=1;" vertex="1" parent="1">
          <mxGeometry x="310" y="155" width="340" height="164" as="geometry" />
        </mxCell>
        <mxCell id="PXyk8LQRHrcoTp4581pN-8" value="- name: String" style="text;strokeColor=none;fillColor=none;align=left;verticalAlign=top;spacingLeft=4;spacingRight=4;overflow=hidden;rotatable=0;points=[[0,0.5],[1,0.5]];portConstraint=eastwest;whiteSpace=wrap;html=1;" vertex="1" parent="PXyk8LQRHrcoTp4581pN-7">
          <mxGeometry y="26" width="340" height="26" as="geometry" />
        </mxCell>
        <mxCell id="PXyk8LQRHrcoTp4581pN-25" value="- phoneNumber: Integer" style="text;strokeColor=none;fillColor=none;align=left;verticalAlign=top;spacingLeft=4;spacingRight=4;overflow=hidden;rotatable=0;points=[[0,0.5],[1,0.5]];portConstraint=eastwest;whiteSpace=wrap;html=1;" vertex="1" parent="PXyk8LQRHrcoTp4581pN-7">
          <mxGeometry y="52" width="340" height="26" as="geometry" />
        </mxCell>
        <mxCell id="PXyk8LQRHrcoTp4581pN-9" value="" style="line;strokeWidth=1;fillColor=none;align=left;verticalAlign=middle;spacingTop=-1;spacingLeft=3;spacingRight=3;rotatable=0;labelPosition=right;points=[];portConstraint=eastwest;strokeColor=inherit;" vertex="1" parent="PXyk8LQRHrcoTp4581pN-7">
          <mxGeometry y="78" width="340" height="8" as="geometry" />
        </mxCell>
        <mxCell id="PXyk8LQRHrcoTp4581pN-10" value="+ doSearch(agency: Agency): Object" style="text;strokeColor=none;fillColor=none;align=left;verticalAlign=top;spacingLeft=4;spacingRight=4;overflow=hidden;rotatable=0;points=[[0,0.5],[1,0.5]];portConstraint=eastwest;whiteSpace=wrap;html=1;" vertex="1" parent="PXyk8LQRHrcoTp4581pN-7">
          <mxGeometry y="86" width="340" height="26" as="geometry" />
        </mxCell>
        <mxCell id="PXyk8LQRHrcoTp4581pN-26" value="&lt;div&gt;+ makeDeal(agency: Agency): Deal&lt;/div&gt;" style="text;strokeColor=none;fillColor=none;align=left;verticalAlign=top;spacingLeft=4;spacingRight=4;overflow=hidden;rotatable=0;points=[[0,0.5],[1,0.5]];portConstraint=eastwest;whiteSpace=wrap;html=1;" vertex="1" parent="PXyk8LQRHrcoTp4581pN-7">
          <mxGeometry y="112" width="340" height="26" as="geometry" />
        </mxCell>
        <mxCell id="PXyk8LQRHrcoTp4581pN-36" value="&lt;div&gt;+ doInspection(object: Object): void&lt;/div&gt;" style="text;strokeColor=none;fillColor=none;align=left;verticalAlign=top;spacingLeft=4;spacingRight=4;overflow=hidden;rotatable=0;points=[[0,0.5],[1,0.5]];portConstraint=eastwest;whiteSpace=wrap;html=1;" vertex="1" parent="PXyk8LQRHrcoTp4581pN-7">
          <mxGeometry y="138" width="340" height="26" as="geometry" />
        </mxCell>
        <mxCell id="PXyk8LQRHrcoTp4581pN-82" style="edgeStyle=orthogonalEdgeStyle;rounded=0;orthogonalLoop=1;jettySize=auto;html=1;exitX=0.474;exitY=1.026;exitDx=0;exitDy=0;exitPerimeter=0;entryX=0.5;entryY=0;entryDx=0;entryDy=0;" edge="1" parent="1" source="PXyk8LQRHrcoTp4581pN-36" target="PXyk8LQRHrcoTp4581pN-11">
          <mxGeometry relative="1" as="geometry">
            <mxPoint x="490" y="399" as="targetPoint" />
          </mxGeometry>
        </mxCell>
        <mxCell id="PXyk8LQRHrcoTp4581pN-83" value="Обращается в&lt;div&gt;агентство&lt;/div&gt;" style="edgeLabel;html=1;align=center;verticalAlign=middle;resizable=0;points=[];" vertex="1" connectable="0" parent="PXyk8LQRHrcoTp4581pN-82">
          <mxGeometry x="-0.3782" y="2" relative="1" as="geometry">
            <mxPoint x="37" y="-8" as="offset" />
          </mxGeometry>
        </mxCell>
        <mxCell id="PXyk8LQRHrcoTp4581pN-11" value="Agency" style="swimlane;fontStyle=1;align=center;verticalAlign=top;childLayout=stackLayout;horizontal=1;startSize=26;horizontalStack=0;resizeParent=1;resizeParentMax=0;resizeLast=0;collapsible=1;marginBottom=0;whiteSpace=wrap;html=1;" vertex="1" parent="1">
          <mxGeometry x="330" y="499" width="390" height="190" as="geometry">
            <mxRectangle x="30" y="150" width="70" height="30" as="alternateBounds" />
          </mxGeometry>
        </mxCell>
        <mxCell id="PXyk8LQRHrcoTp4581pN-12" value="- name: String" style="text;strokeColor=none;fillColor=none;align=left;verticalAlign=top;spacingLeft=4;spacingRight=4;overflow=hidden;rotatable=0;points=[[0,0.5],[1,0.5]];portConstraint=eastwest;whiteSpace=wrap;html=1;" vertex="1" parent="PXyk8LQRHrcoTp4581pN-11">
          <mxGeometry y="26" width="390" height="26" as="geometry" />
        </mxCell>
        <mxCell id="PXyk8LQRHrcoTp4581pN-23" value="- objects: List&amp;lt;Object&amp;gt;" style="text;strokeColor=none;fillColor=none;align=left;verticalAlign=top;spacingLeft=4;spacingRight=4;overflow=hidden;rotatable=0;points=[[0,0.5],[1,0.5]];portConstraint=eastwest;whiteSpace=wrap;html=1;" vertex="1" parent="PXyk8LQRHrcoTp4581pN-11">
          <mxGeometry y="52" width="390" height="26" as="geometry" />
        </mxCell>
        <mxCell id="PXyk8LQRHrcoTp4581pN-24" value="- agents: List&amp;lt;Agent&amp;gt;" style="text;strokeColor=none;fillColor=none;align=left;verticalAlign=top;spacingLeft=4;spacingRight=4;overflow=hidden;rotatable=0;points=[[0,0.5],[1,0.5]];portConstraint=eastwest;whiteSpace=wrap;html=1;" vertex="1" parent="PXyk8LQRHrcoTp4581pN-11">
          <mxGeometry y="78" width="390" height="26" as="geometry" />
        </mxCell>
        <mxCell id="PXyk8LQRHrcoTp4581pN-13" value="" style="line;strokeWidth=1;fillColor=none;align=left;verticalAlign=middle;spacingTop=-1;spacingLeft=3;spacingRight=3;rotatable=0;labelPosition=right;points=[];portConstraint=eastwest;strokeColor=inherit;" vertex="1" parent="PXyk8LQRHrcoTp4581pN-11">
          <mxGeometry y="104" width="390" height="8" as="geometry" />
        </mxCell>
        <mxCell id="PXyk8LQRHrcoTp4581pN-14" value="+ setDeal(deal: Deal, customer: Client): void" style="text;strokeColor=none;fillColor=none;align=left;verticalAlign=top;spacingLeft=4;spacingRight=4;overflow=hidden;rotatable=0;points=[[0,0.5],[1,0.5]];portConstraint=eastwest;whiteSpace=wrap;html=1;" vertex="1" parent="PXyk8LQRHrcoTp4581pN-11">
          <mxGeometry y="112" width="390" height="26" as="geometry" />
        </mxCell>
        <mxCell id="PXyk8LQRHrcoTp4581pN-22" value="+ createInspection(agent: Agent, customer: Client,object: Object): void" style="text;strokeColor=none;fillColor=none;align=left;verticalAlign=top;spacingLeft=4;spacingRight=4;overflow=hidden;rotatable=0;points=[[0,0.5],[1,0.5]];portConstraint=eastwest;whiteSpace=wrap;html=1;" vertex="1" parent="PXyk8LQRHrcoTp4581pN-11">
          <mxGeometry y="138" width="390" height="26" as="geometry" />
        </mxCell>
        <mxCell id="PXyk8LQRHrcoTp4581pN-21" value="+&amp;nbsp;" style="text;strokeColor=none;fillColor=none;align=left;verticalAlign=top;spacingLeft=4;spacingRight=4;overflow=hidden;rotatable=0;points=[[0,0.5],[1,0.5]];portConstraint=eastwest;whiteSpace=wrap;html=1;" vertex="1" parent="PXyk8LQRHrcoTp4581pN-11">
          <mxGeometry y="164" width="390" height="26" as="geometry" />
        </mxCell>
        <mxCell id="PXyk8LQRHrcoTp4581pN-15" value="Agent" style="swimlane;fontStyle=1;align=center;verticalAlign=top;childLayout=stackLayout;horizontal=1;startSize=26;horizontalStack=0;resizeParent=1;resizeParentMax=0;resizeLast=0;collapsible=1;marginBottom=0;whiteSpace=wrap;html=1;" vertex="1" parent="1">
          <mxGeometry x="690" y="349" width="213" height="112" as="geometry" />
        </mxCell>
        <mxCell id="PXyk8LQRHrcoTp4581pN-16" value="- name: String" style="text;strokeColor=none;fillColor=none;align=left;verticalAlign=top;spacingLeft=4;spacingRight=4;overflow=hidden;rotatable=0;points=[[0,0.5],[1,0.5]];portConstraint=eastwest;whiteSpace=wrap;html=1;" vertex="1" parent="PXyk8LQRHrcoTp4581pN-15">
          <mxGeometry y="26" width="213" height="26" as="geometry" />
        </mxCell>
        <mxCell id="PXyk8LQRHrcoTp4581pN-39" value="- phoneNumber: Integer" style="text;strokeColor=none;fillColor=none;align=left;verticalAlign=top;spacingLeft=4;spacingRight=4;overflow=hidden;rotatable=0;points=[[0,0.5],[1,0.5]];portConstraint=eastwest;whiteSpace=wrap;html=1;" vertex="1" parent="PXyk8LQRHrcoTp4581pN-15">
          <mxGeometry y="52" width="213" height="26" as="geometry" />
        </mxCell>
        <mxCell id="PXyk8LQRHrcoTp4581pN-17" value="" style="line;strokeWidth=1;fillColor=none;align=left;verticalAlign=middle;spacingTop=-1;spacingLeft=3;spacingRight=3;rotatable=0;labelPosition=right;points=[];portConstraint=eastwest;strokeColor=inherit;" vertex="1" parent="PXyk8LQRHrcoTp4581pN-15">
          <mxGeometry y="78" width="213" height="8" as="geometry" />
        </mxCell>
        <mxCell id="PXyk8LQRHrcoTp4581pN-18" value="+ doInspection(object: Object): void" style="text;strokeColor=none;fillColor=none;align=left;verticalAlign=top;spacingLeft=4;spacingRight=4;overflow=hidden;rotatable=0;points=[[0,0.5],[1,0.5]];portConstraint=eastwest;whiteSpace=wrap;html=1;" vertex="1" parent="PXyk8LQRHrcoTp4581pN-15">
          <mxGeometry y="86" width="213" height="26" as="geometry" />
        </mxCell>
        <mxCell id="PXyk8LQRHrcoTp4581pN-58" value="Deal" style="swimlane;fontStyle=1;align=center;verticalAlign=top;childLayout=stackLayout;horizontal=1;startSize=26;horizontalStack=0;resizeParent=1;resizeParentMax=0;resizeLast=0;collapsible=1;marginBottom=0;whiteSpace=wrap;html=1;" vertex="1" parent="1">
          <mxGeometry y="319" width="215" height="160" as="geometry" />
        </mxCell>
        <mxCell id="PXyk8LQRHrcoTp4581pN-62" value="- number: Integer" style="text;strokeColor=none;fillColor=none;align=left;verticalAlign=top;spacingLeft=4;spacingRight=4;overflow=hidden;rotatable=0;points=[[0,0.5],[1,0.5]];portConstraint=eastwest;whiteSpace=wrap;html=1;" vertex="1" parent="PXyk8LQRHrcoTp4581pN-58">
          <mxGeometry y="26" width="215" height="26" as="geometry" />
        </mxCell>
        <mxCell id="PXyk8LQRHrcoTp4581pN-64" value="- customer: Client" style="text;strokeColor=none;fillColor=none;align=left;verticalAlign=top;spacingLeft=4;spacingRight=4;overflow=hidden;rotatable=0;points=[[0,0.5],[1,0.5]];portConstraint=eastwest;whiteSpace=wrap;html=1;" vertex="1" parent="PXyk8LQRHrcoTp4581pN-58">
          <mxGeometry y="52" width="215" height="26" as="geometry" />
        </mxCell>
        <mxCell id="PXyk8LQRHrcoTp4581pN-60" value="" style="line;strokeWidth=1;fillColor=none;align=left;verticalAlign=middle;spacingTop=-1;spacingLeft=3;spacingRight=3;rotatable=0;labelPosition=right;points=[];portConstraint=eastwest;strokeColor=inherit;" vertex="1" parent="PXyk8LQRHrcoTp4581pN-58">
          <mxGeometry y="78" width="215" height="8" as="geometry" />
        </mxCell>
        <mxCell id="PXyk8LQRHrcoTp4581pN-65" value="&lt;span style=&quot;text-wrap: nowrap; background-color: rgb(255, 255, 255);&quot;&gt;+ getDeal(&lt;/span&gt;&lt;span style=&quot;background-color: rgb(255, 255, 255); text-wrap: nowrap;&quot;&gt;): Deal&lt;/span&gt;" style="text;strokeColor=none;fillColor=none;align=left;verticalAlign=top;spacingLeft=4;spacingRight=4;overflow=hidden;rotatable=0;points=[[0,0.5],[1,0.5]];portConstraint=eastwest;whiteSpace=wrap;html=1;" vertex="1" parent="PXyk8LQRHrcoTp4581pN-58">
          <mxGeometry y="86" width="215" height="28" as="geometry" />
        </mxCell>
        <mxCell id="PXyk8LQRHrcoTp4581pN-74" value="&lt;span style=&quot;text-wrap: nowrap; background-color: rgb(255, 255, 255);&quot;&gt;+ createDeal(number: Integer,&lt;/span&gt;&lt;div&gt;&lt;span style=&quot;text-wrap: nowrap; background-color: rgb(255, 255, 255);&quot;&gt;object: Object,&lt;/span&gt;&lt;span style=&quot;background-color: rgb(255, 255, 255); text-wrap: nowrap;&quot;&gt;&amp;nbsp;customer: Client): void&lt;/span&gt;&lt;/div&gt;" style="text;strokeColor=none;fillColor=none;align=left;verticalAlign=top;spacingLeft=4;spacingRight=4;overflow=hidden;rotatable=0;points=[[0,0.5],[1,0.5]];portConstraint=eastwest;whiteSpace=wrap;html=1;" vertex="1" parent="PXyk8LQRHrcoTp4581pN-58">
          <mxGeometry y="114" width="215" height="46" as="geometry" />
        </mxCell>
        <mxCell id="PXyk8LQRHrcoTp4581pN-66" value="Object" style="swimlane;fontStyle=1;align=center;verticalAlign=top;childLayout=stackLayout;horizontal=1;startSize=26;horizontalStack=0;resizeParent=1;resizeParentMax=0;resizeLast=0;collapsible=1;marginBottom=0;whiteSpace=wrap;html=1;" vertex="1" parent="1">
          <mxGeometry x="27.5" y="539" width="160" height="138" as="geometry" />
        </mxCell>
        <mxCell id="PXyk8LQRHrcoTp4581pN-75" value="- address: String" style="text;strokeColor=none;fillColor=none;align=left;verticalAlign=top;spacingLeft=4;spacingRight=4;overflow=hidden;rotatable=0;points=[[0,0.5],[1,0.5]];portConstraint=eastwest;whiteSpace=wrap;html=1;" vertex="1" parent="PXyk8LQRHrcoTp4581pN-66">
          <mxGeometry y="26" width="160" height="26" as="geometry" />
        </mxCell>
        <mxCell id="PXyk8LQRHrcoTp4581pN-78" value="- name: String" style="text;strokeColor=none;fillColor=none;align=left;verticalAlign=top;spacingLeft=4;spacingRight=4;overflow=hidden;rotatable=0;points=[[0,0.5],[1,0.5]];portConstraint=eastwest;whiteSpace=wrap;html=1;" vertex="1" parent="PXyk8LQRHrcoTp4581pN-66">
          <mxGeometry y="52" width="160" height="26" as="geometry" />
        </mxCell>
        <mxCell id="PXyk8LQRHrcoTp4581pN-77" value="- cost: Integer" style="text;strokeColor=none;fillColor=none;align=left;verticalAlign=top;spacingLeft=4;spacingRight=4;overflow=hidden;rotatable=0;points=[[0,0.5],[1,0.5]];portConstraint=eastwest;whiteSpace=wrap;html=1;" vertex="1" parent="PXyk8LQRHrcoTp4581pN-66">
          <mxGeometry y="78" width="160" height="26" as="geometry" />
        </mxCell>
        <mxCell id="PXyk8LQRHrcoTp4581pN-70" value="" style="line;strokeWidth=1;fillColor=none;align=left;verticalAlign=middle;spacingTop=-1;spacingLeft=3;spacingRight=3;rotatable=0;labelPosition=right;points=[];portConstraint=eastwest;strokeColor=inherit;" vertex="1" parent="PXyk8LQRHrcoTp4581pN-66">
          <mxGeometry y="104" width="160" height="8" as="geometry" />
        </mxCell>
        <mxCell id="PXyk8LQRHrcoTp4581pN-71" value="&lt;span style=&quot;text-wrap: nowrap; background-color: rgb(255, 255, 255);&quot;&gt;+ getObject(): Object&lt;/span&gt;" style="text;strokeColor=none;fillColor=none;align=left;verticalAlign=top;spacingLeft=4;spacingRight=4;overflow=hidden;rotatable=0;points=[[0,0.5],[1,0.5]];portConstraint=eastwest;whiteSpace=wrap;html=1;" vertex="1" parent="PXyk8LQRHrcoTp4581pN-66">
          <mxGeometry y="112" width="160" height="26" as="geometry" />
        </mxCell>
        <mxCell id="PXyk8LQRHrcoTp4581pN-84" style="edgeStyle=orthogonalEdgeStyle;rounded=0;orthogonalLoop=1;jettySize=auto;html=1;exitX=1;exitY=0.5;exitDx=0;exitDy=0;entryX=0.515;entryY=1.026;entryDx=0;entryDy=0;entryPerimeter=0;" edge="1" parent="1" source="PXyk8LQRHrcoTp4581pN-24" target="PXyk8LQRHrcoTp4581pN-18">
          <mxGeometry relative="1" as="geometry">
            <mxPoint x="800" y="479" as="targetPoint" />
            <mxPoint x="481" y="330" as="sourcePoint" />
            <Array as="points">
              <mxPoint x="800" y="590" />
            </Array>
          </mxGeometry>
        </mxCell>
        <mxCell id="PXyk8LQRHrcoTp4581pN-85" value="Передача агенту&lt;div&gt;для работы&lt;/div&gt;" style="edgeLabel;html=1;align=center;verticalAlign=middle;resizable=0;points=[];" vertex="1" connectable="0" parent="PXyk8LQRHrcoTp4581pN-84">
          <mxGeometry x="-0.3782" y="2" relative="1" as="geometry">
            <mxPoint x="65" y="-63" as="offset" />
          </mxGeometry>
        </mxCell>
        <mxCell id="PXyk8LQRHrcoTp4581pN-86" value="1" style="text;html=1;align=center;verticalAlign=middle;resizable=0;points=[];autosize=1;strokeColor=none;fillColor=none;" vertex="1" parent="1">
          <mxGeometry x="720" y="589" width="30" height="30" as="geometry" />
        </mxCell>
        <mxCell id="PXyk8LQRHrcoTp4581pN-89" value="1..*" style="text;html=1;align=center;verticalAlign=middle;resizable=0;points=[];autosize=1;strokeColor=none;fillColor=none;" vertex="1" parent="1">
          <mxGeometry x="795" y="461" width="40" height="30" as="geometry" />
        </mxCell>
        <mxCell id="PXyk8LQRHrcoTp4581pN-90" value="*" style="text;html=1;align=center;verticalAlign=middle;resizable=0;points=[];autosize=1;strokeColor=none;fillColor=none;" vertex="1" parent="1">
          <mxGeometry x="470" y="319" width="30" height="30" as="geometry" />
        </mxCell>
        <mxCell id="PXyk8LQRHrcoTp4581pN-91" value="1" style="text;html=1;align=center;verticalAlign=middle;resizable=0;points=[];autosize=1;strokeColor=none;fillColor=none;" vertex="1" parent="1">
          <mxGeometry x="520" y="469" width="30" height="30" as="geometry" />
        </mxCell>
        <mxCell id="PXyk8LQRHrcoTp4581pN-92" style="edgeStyle=orthogonalEdgeStyle;rounded=0;orthogonalLoop=1;jettySize=auto;html=1;exitX=0.5;exitY=0;exitDx=0;exitDy=0;" edge="1" parent="1" source="PXyk8LQRHrcoTp4581pN-15">
          <mxGeometry relative="1" as="geometry">
            <mxPoint x="650" y="229" as="targetPoint" />
            <Array as="points">
              <mxPoint x="797" y="229" />
              <mxPoint x="650" y="229" />
            </Array>
          </mxGeometry>
        </mxCell>
        <mxCell id="PXyk8LQRHrcoTp4581pN-93" value="Работа клиентом" style="edgeLabel;html=1;align=center;verticalAlign=middle;resizable=0;points=[];" vertex="1" connectable="0" parent="PXyk8LQRHrcoTp4581pN-92">
          <mxGeometry x="0.5197" y="-1" relative="1" as="geometry">
            <mxPoint x="7" y="-8" as="offset" />
          </mxGeometry>
        </mxCell>
        <mxCell id="PXyk8LQRHrcoTp4581pN-96" value="" style="endArrow=diamondThin;endFill=1;endSize=24;html=1;rounded=0;exitX=1;exitY=0.5;exitDx=0;exitDy=0;entryX=0;entryY=0;entryDx=0;entryDy=0;" edge="1" parent="1" source="PXyk8LQRHrcoTp4581pN-65" target="PXyk8LQRHrcoTp4581pN-11">
          <mxGeometry width="160" relative="1" as="geometry">
            <mxPoint x="280" y="429" as="sourcePoint" />
            <mxPoint x="440" y="429" as="targetPoint" />
          </mxGeometry>
        </mxCell>
        <mxCell id="PXyk8LQRHrcoTp4581pN-97" value="" style="endArrow=diamondThin;endFill=0;endSize=24;html=1;rounded=0;entryX=0;entryY=0.041;entryDx=0;entryDy=0;entryPerimeter=0;exitX=1;exitY=0.5;exitDx=0;exitDy=0;" edge="1" parent="1" source="PXyk8LQRHrcoTp4581pN-78" target="PXyk8LQRHrcoTp4581pN-24">
          <mxGeometry width="160" relative="1" as="geometry">
            <mxPoint x="225" y="440" as="sourcePoint" />
            <mxPoint x="340" y="534" as="targetPoint" />
          </mxGeometry>
        </mxCell>
        <mxCell id="PXyk8LQRHrcoTp4581pN-98" value="1..*" style="text;html=1;align=center;verticalAlign=middle;resizable=0;points=[];autosize=1;strokeColor=none;fillColor=none;" vertex="1" parent="1">
          <mxGeometry x="180" y="579" width="40" height="30" as="geometry" />
        </mxCell>
        <mxCell id="PXyk8LQRHrcoTp4581pN-102" value="*" style="text;html=1;align=center;verticalAlign=middle;resizable=0;points=[];autosize=1;strokeColor=none;fillColor=none;" vertex="1" parent="1">
          <mxGeometry x="215" y="399" width="30" height="30" as="geometry" />
        </mxCell>
        <mxCell id="PXyk8LQRHrcoTp4581pN-103" value="1" style="text;html=1;align=center;verticalAlign=middle;resizable=0;points=[];autosize=1;strokeColor=none;fillColor=none;" vertex="1" parent="1">
          <mxGeometry x="795" y="319" width="30" height="30" as="geometry" />
        </mxCell>
        <mxCell id="PXyk8LQRHrcoTp4581pN-104" value="1" style="text;html=1;align=center;verticalAlign=middle;resizable=0;points=[];autosize=1;strokeColor=none;fillColor=none;" vertex="1" parent="1">
          <mxGeometry x="650" y="227" width="30" height="30" as="geometry" />
        </mxCell>
      </root>
    </mxGraphModel>
  </diagram>
</mxfile>
